<svg xmlns="http://www.w3.org/2000/svg" width="30.334" height="23.913" viewBox="0 0 30.334 23.913">
  <defs>
    <style>
      .cls-1 {
        fill: #1a47b0;
      }
    </style>
  </defs>
  <path id="路径_3149" data-name="路径 3149" class="cls-1" d="M86.4,139.053c-1.179-.228-.6-.851-.6-.851s1.153-1.878-.231-3.245c-1.712-1.691-5.88.213-5.88.213-1.589.486-1.169-.223-.943-1.428,0-1.423-.492-3.827-4.732-2.41-4.234,1.433-7.869,6.44-7.869,6.44-2.527,3.326-2.194,5.9-2.194,5.9.63,5.681,6.746,7.24,11.5,7.61,5,.385,11.76-1.7,13.8-5.995S87.585,139.286,86.4,139.053ZM75.82,149.68c-4.967.228-8.986-2.228-8.986-5.5s4.019-5.9,8.986-6.126,9,1.8,9,5.063S80.792,149.457,75.82,149.68Zm-.989-9.473a4.631,4.631,0,0,0-4.419,5.195,2.54,2.54,0,0,0,1.338,2.207,5.839,5.839,0,0,0,7.453-1.322C80.726,144.354,79.834,139.635,74.831,140.208Zm-1.261,6.486a1.364,1.364,0,0,1-1.686-1.195,1.774,1.774,0,0,1,1.6-1.666c1.071-.1,1.769.506,1.769,1.281A1.789,1.789,0,0,1,73.57,146.693Zm2.948-2.476a.58.58,0,0,1-.872-.081.717.717,0,0,1,.21-.937.609.609,0,0,1,.923.081A.765.765,0,0,1,76.517,144.217Zm12.318-7.164a.813.813,0,0,0,.8-.678.49.49,0,0,0,.01-.086c.61-5.412-4.5-4.481-4.5-4.481a.81.81,0,1,0,0,1.62c3.665-.8,2.861,2.82,2.861,2.82A.807.807,0,0,0,88.836,137.053Zm-.595-9.447a10.3,10.3,0,0,0-4.091.04c-.041.005-.077.041-.113.046a.1.1,0,0,0-.031.02,1.178,1.178,0,0,0,.323,2.314,5.863,5.863,0,0,0,1.077-.253,6.314,6.314,0,0,1,5.905,2.881,5.177,5.177,0,0,1,.364,3.9,3.442,3.442,0,0,0-.236,1.134,1.087,1.087,0,0,0,1.189,1.058c.549,0,1.01-.076,1.143-.992h.005C95.735,131.342,91.4,128.33,88.241,127.606Zm0,0" transform="translate(-63.933 -127.412)"/>
</svg>
