<svg xmlns="http://www.w3.org/2000/svg" width="20.119" height="15.86" viewBox="0 0 20.119 15.86">
  <defs>
    <style>
      .cls-1 {
        fill: #9a9a9a;
      }
    </style>
  </defs>
  <path id="路径_3149" data-name="路径 3149" class="cls-1" d="M78.835,135.133c-.782-.151-.4-.564-.4-.564a1.812,1.812,0,0,0-.153-2.152c-1.136-1.122-3.9.141-3.9.141-1.054.322-.775-.148-.626-.947,0-.944-.326-2.539-3.138-1.6s-5.219,4.271-5.219,4.271a5.834,5.834,0,0,0-1.455,3.912c.418,3.768,4.474,4.8,7.629,5.047,3.318.255,7.8-1.128,9.156-3.976a2.733,2.733,0,0,0-1.894-4.134Zm-7.018,7.048c-3.295.151-5.96-1.477-5.96-3.647s2.666-3.912,5.96-4.063,5.967,1.192,5.967,3.358S75.115,142.034,71.817,142.181Zm-.656-6.283a3.071,3.071,0,0,0-2.931,3.445,1.685,1.685,0,0,0,.887,1.464,3.873,3.873,0,0,0,4.943-.876C75.071,138.649,74.479,135.519,71.161,135.9Zm-.836,4.3a.9.9,0,0,1-1.118-.793,1.177,1.177,0,0,1,1.061-1.1c.711-.067,1.173.336,1.173.85A1.187,1.187,0,0,1,70.324,140.2Zm1.955-1.642a.385.385,0,0,1-.578-.054.476.476,0,0,1,.139-.621.4.4,0,0,1,.612.054A.508.508,0,0,1,72.279,138.558Zm8.17-4.751a.539.539,0,0,0,.534-.45.324.324,0,0,0,.007-.057,2.435,2.435,0,0,0-2.982-2.972.537.537,0,1,0,0,1.075c2.431-.531,1.9,1.87,1.9,1.87A.535.535,0,0,0,80.449,133.807Zm-.394-6.266a6.832,6.832,0,0,0-2.713.027c-.027,0-.051.027-.075.03a.064.064,0,0,0-.02.013.781.781,0,0,0,.214,1.535,3.887,3.887,0,0,0,.714-.168,4.188,4.188,0,0,1,3.917,1.911,3.434,3.434,0,0,1,.241,2.589,2.283,2.283,0,0,0-.156.752.721.721,0,0,0,.789.7c.364,0,.67-.05.758-.658h0C85.026,130.019,82.149,128.021,80.055,127.541Zm0,0" transform="translate(-63.933 -127.412)"/>
</svg>
