<svg xmlns="http://www.w3.org/2000/svg" width="29.353" height="23.913" viewBox="0 0 29.353 23.913">
  <defs>
    <style>
      .cls-1 {
        fill: #1a47b0;
      }
    </style>
  </defs>
  <path id="路径_3150" data-name="路径 3150" class="cls-1" d="M19.868,102.145a9.147,9.147,0,0,1,1,.062c-.9-4.186-5.373-7.3-10.483-7.3C4.678,94.912,0,98.8,0,103.747c0,2.853,1.556,5.2,4.157,7.015l-1.038,3.124,3.632-1.82a17.9,17.9,0,0,0,3.638.519c.327,0,.649-.015.969-.039a7.788,7.788,0,0,1-.321-2.179C11.039,105.829,14.935,102.145,19.868,102.145Zm-5.584-2.816a1.3,1.3,0,1,1,0,2.6,1.32,1.32,0,1,1,0-2.6Zm-7.27,2.6a1.321,1.321,0,1,1,0-2.6,1.3,1.3,0,0,1,0,2.6Zm22.339,8.318c0-4.153-4.157-7.538-8.826-7.538-4.944,0-8.835,3.387-8.835,7.538s3.893,7.538,8.835,7.538a13.031,13.031,0,0,0,3.117-.519l2.849,1.563-.782-2.6C27.8,114.66,29.353,112.586,29.353,110.243Zm-11.692-1.3a1.038,1.038,0,1,1,0-2.077,1.065,1.065,0,1,1,0,2.077Zm5.715,0a1.038,1.038,0,0,1,0-2.077,1.065,1.065,0,1,1,0,2.077Z" transform="translate(0 -94.912)"/>
</svg>
