<svg xmlns="http://www.w3.org/2000/svg" width="19.468" height="15.86" viewBox="0 0 19.468 15.86">
  <defs>
    <style>
      .cls-1 {
        fill: #9a9a9a;
      }
    </style>
  </defs>
  <path id="路径_3150" data-name="路径 3150" class="cls-1" d="M13.177,99.71a6.067,6.067,0,0,1,.666.041c-.6-2.777-3.564-4.839-6.953-4.839C3.1,94.912,0,97.493,0,100.772a5.654,5.654,0,0,0,2.757,4.653L2.068,107.5l2.409-1.207a11.87,11.87,0,0,0,2.413.344c.217,0,.431-.01.642-.026a5.165,5.165,0,0,1-.213-1.445A5.645,5.645,0,0,1,13.177,99.71Zm-3.7-1.868a.861.861,0,1,1,0,1.722.875.875,0,1,1,0-1.722ZM4.652,99.564a.876.876,0,1,1,0-1.722.861.861,0,0,1,0,1.722Zm14.816,5.517c0-2.755-2.757-5-5.854-5-3.279,0-5.86,2.246-5.86,5s2.582,5,5.86,5a8.642,8.642,0,0,0,2.067-.344l1.89,1.037-.518-1.723A5.227,5.227,0,0,0,19.468,105.08Zm-7.754-.863a.689.689,0,1,1,0-1.377.706.706,0,1,1,0,1.377Zm3.79,0a.689.689,0,0,1,0-1.377.706.706,0,1,1,0,1.377Z" transform="translate(0 -94.912)"/>
</svg>
